<?xml version="1.0" encoding="UTF-8"?>
<svg id="Layer_1" data-name="Layer 1" xmlns="http://www.w3.org/2000/svg" viewBox="0 0 84.83 85.07">
  <path d="M36.77.25c3.28-.33,10.75-.48,13.74.54,1.68.57,2.39,1.98,1.85,3.68-.69,2.21-5.02,1.98-4.51,6.8.46,4.39,4.42,3.73,5.26,5.73.65,1.55-.1,3.05-.04,4.43.2,4.44,3.39,9.19,7.98,9.97,1.98.33,4.82-.31,6.49.17,2.2.64,1.58,5.16,6.37,5.42s4.32-5.42,8.12-4.65c2.18.44,2.48,3.78,2.64,5.62,3.13,37.65-38.89,61.13-68.77,37.81C-13.36,52.95.2,3.98,36.77.25ZM43.52,5.62C12.33,4.44-6.56,41.75,13.92,65.99c22.74,26.9,65.74,10.26,65.26-24.3-3.98,1.14-8.08,1.44-11.56-1.18-.81-.61-2.45-2.95-2.81-3.07-.81-.27-2.06.05-3.03-.11-7.89-1.3-13.01-6.45-14.31-14.31-.16-.97.16-2.22-.11-3.03-.11-.34-2.61-2.13-3.24-3.03-2.24-3.17-2.54-7.97-.61-11.34Z"/>
  <circle cx="31.76" cy="21.3" r="5.49"/>
  <circle cx="21.17" cy="42.46" r="5.49"/>
  <circle cx="47.63" cy="63.62" r="5.47"/>
  <circle cx="45.01" cy="45.11" r="2.83"/>
  <circle cx="29.09" cy="60.96" r="2.82"/>
  <circle cx="66.17" cy="55.71" r="2.81"/>
</svg>